<?xml version="1.0" standalone="no"?><!DOCTYPE svg PUBLIC "-//W3C//DTD SVG 1.1//EN" "http://www.w3.org/Graphics/SVG/1.1/DTD/svg11.dtd"><svg t="1555907994598" class="icon" style="" viewBox="0 0 1024 1024" version="1.1" xmlns="http://www.w3.org/2000/svg" p-id="1949" xmlns:xlink="http://www.w3.org/1999/xlink" width="200" height="200"><defs><style type="text/css"></style></defs><path d="M560 864c114.88 0 208-264.992 208-375.648S674.88 288 560 288 352 377.696 352 488.352 445.12 864 560 864z" fill="#CAE705" p-id="1950"></path><path d="M240 904a32 32 0 0 1 0-64h160a32 32 0 0 1 0 64h-160zM624 904a32 32 0 0 1 0-64h160a32 32 0 0 1 0 64h-160zM512 800c72.832 0 192-263.2 192-416a192 192 0 1 0-384 0c0 152.8 119.168 416 192 416z m0 64c-141.376 0-256-338.624-256-480a256 256 0 0 1 512 0c0 141.376-114.624 480-256 480z" fill="#2B82D8" p-id="1951"></path><path d="M512 512a128 128 0 1 1 0-256 128 128 0 0 1 0 256z m0-64a64 64 0 1 0 0.032-127.968A64 64 0 0 0 512 448z" fill="#2B82D8" p-id="1952"></path></svg>